<svg width="36" height="36" viewBox="0 0 36 36" fill="none" xmlns="http://www.w3.org/2000/svg">
<circle cx="18.127" cy="18.0021" r="16.5" stroke="black" stroke-width="2"/>
<path d="M15.7414 20.7308C12.1739 20.7308 9.12695 21.3431 9.12695 23.7905C9.12695 26.2397 12.1546 26.8731 15.7414 26.8731C19.3088 26.8731 22.3558 26.2608 22.3558 23.8135C22.3558 21.3642 19.3282 20.7308 15.7414 20.7308Z" fill="black"/>
<path opacity="0.4" d="M15.7414 18.3979C18.171 18.3979 20.1181 16.2793 20.1181 13.6355C20.1181 10.9918 18.171 8.87311 15.7414 8.87311C13.3126 8.87311 11.3647 10.9918 11.3647 13.6355C11.3647 16.2793 13.3126 18.3979 15.7414 18.3979Z" fill="black"/>
<path opacity="0.4" d="M21.883 13.7218C21.883 15.0682 21.5114 16.3244 20.8597 17.3679C20.7919 17.4752 20.8518 17.6199 20.9698 17.6429C21.1336 17.6726 21.3018 17.6908 21.4735 17.6947C23.182 17.7435 24.7151 16.5467 25.1387 14.7443C25.7666 12.0698 23.9243 9.66852 21.5775 9.66852C21.323 9.66852 21.079 9.69727 20.8413 9.74997C20.8087 9.75763 20.7734 9.77488 20.7558 9.80555C20.7329 9.84483 20.7497 9.89562 20.7726 9.92916C21.4779 11.0053 21.883 12.3152 21.883 13.7218Z" fill="black"/>
<path d="M26.9282 21.0424C26.6155 20.3171 25.8608 19.8197 24.7125 19.5754C24.1709 19.4317 22.7038 19.2276 21.3397 19.2563C21.3194 19.2592 21.308 19.2745 21.3062 19.2841C21.3036 19.2994 21.3097 19.3224 21.3362 19.3387C21.9667 19.6779 24.4034 21.1536 24.0969 24.2659C24.0837 24.402 24.1832 24.517 24.3074 24.4978C24.9071 24.4049 26.45 24.0436 26.9282 22.9206C27.1932 22.3265 27.1932 21.6366 26.9282 21.0424Z" fill="black"/>
</svg>
