<svg width="37" height="36" viewBox="0 0 37 36" fill="none" xmlns="http://www.w3.org/2000/svg">
<circle cx="18.127" cy="18.0021" r="16.5" stroke="black" stroke-width="2"/>
<circle cx="31.752" cy="5.50211" r="5" fill="black"/>
<path d="M29.9917 6.8629V6.25743L31.5098 3.86574H32.0318V4.70381H31.7228L30.7658 6.21837V6.24678H32.9231V6.8629H29.9917ZM31.737 7.50211V6.67824L31.7512 6.41013V3.86574H32.4721V7.50211H31.737Z" fill="white"/>
<path opacity="0.4" d="M13.6356 23.0903C14.382 23.0903 14.9936 23.7148 14.9936 24.4863C14.9936 25.2486 14.382 25.8731 13.6356 25.8731C12.8802 25.8731 12.2687 25.2486 12.2687 24.4863C12.2687 23.7148 12.8802 23.0903 13.6356 23.0903ZM23.7527 23.0903C24.4991 23.0903 25.1107 23.7148 25.1107 24.4863C25.1107 25.2486 24.4991 25.8731 23.7527 25.8731C22.9973 25.8731 22.3858 25.2486 22.3858 24.4863C22.3858 23.7148 22.9973 23.0903 23.7527 23.0903Z" fill="black"/>
<path d="M9.544 7.88076L11.6888 8.21139C11.9946 8.26741 12.2194 8.52365 12.2464 8.83592L12.4173 10.8932C12.4442 11.188 12.6781 11.4084 12.9658 11.4084H25.1109C25.6594 11.4084 26.0192 11.6013 26.3789 12.0238C26.7386 12.4462 26.8016 13.0524 26.7206 13.6025L25.8663 19.6274C25.7044 20.7855 24.7332 21.6387 23.5911 21.6387H13.7797C12.5836 21.6387 11.5944 20.7019 11.4955 19.4905L10.6681 9.47881L9.31019 9.24002C8.95047 9.17573 8.69866 8.81755 8.76161 8.45018C8.82456 8.07363 9.17529 7.82565 9.544 7.88076ZM22.1522 14.8057H19.6611C19.2834 14.8057 18.9866 15.1087 18.9866 15.4945C18.9866 15.871 19.2834 16.1833 19.6611 16.1833H22.1522C22.5299 16.1833 22.8267 15.871 22.8267 15.4945C22.8267 15.1087 22.5299 14.8057 22.1522 14.8057Z" fill="black"/>
</svg>
